<mxfile host="app.diagrams.net" modified="2023-03-27T21:12:04.018Z" agent="Mozilla/5.0 (Windows NT 10.0; Win64; x64) AppleWebKit/537.36 (KHTML, like Gecko) Chrome/110.0.0.0 Safari/537.36 OPR/96.0.0.0" etag="xcOCwMxyj4f02KlRpjdu" version="21.1.1">
  <diagram name="Page-1" id="9wHUPZBJ6TQZIwLDprqW">
    <mxGraphModel dx="2113" dy="688" grid="1" gridSize="10" guides="1" tooltips="1" connect="1" arrows="1" fold="1" page="1" pageScale="1" pageWidth="850" pageHeight="1100" math="0" shadow="0">
      <root>
        <mxCell id="0" />
        <mxCell id="1" parent="0" />
        <mxCell id="JRpuc-3HiYip7CMqrHiA-2" value="&lt;b&gt;Klik Log In&lt;/b&gt;" style="text;html=1;strokeColor=none;fillColor=none;align=center;verticalAlign=middle;whiteSpace=wrap;rounded=0;" vertex="1" parent="1">
          <mxGeometry x="350.01" y="80" width="70" height="30" as="geometry" />
        </mxCell>
        <mxCell id="JRpuc-3HiYip7CMqrHiA-3" value="&lt;b&gt;Klik Registracija&lt;/b&gt;" style="text;html=1;strokeColor=none;fillColor=none;align=center;verticalAlign=middle;whiteSpace=wrap;rounded=0;" vertex="1" parent="1">
          <mxGeometry x="745" y="80" width="110" height="30" as="geometry" />
        </mxCell>
        <mxCell id="JRpuc-3HiYip7CMqrHiA-6" value="" style="group;fillColor=#e1d5e7;strokeColor=#9673a6;gradientColor=none;fillStyle=solid;" vertex="1" connectable="0" parent="1">
          <mxGeometry x="510" y="40" width="190" height="140" as="geometry" />
        </mxCell>
        <mxCell id="JRpuc-3HiYip7CMqrHiA-7" value="" style="group" vertex="1" connectable="0" parent="JRpuc-3HiYip7CMqrHiA-6">
          <mxGeometry width="190" height="140" as="geometry" />
        </mxCell>
        <mxCell id="JRpuc-3HiYip7CMqrHiA-8" value="«window»&lt;br&gt;&lt;b&gt;Početni zaslon&lt;br&gt;&lt;br&gt;&lt;br&gt;&lt;/b&gt;" style="html=1;align=center;labelPosition=center;verticalLabelPosition=middle;verticalAlign=top;" vertex="1" parent="JRpuc-3HiYip7CMqrHiA-7">
          <mxGeometry width="190" height="140" as="geometry" />
        </mxCell>
        <mxCell id="JRpuc-3HiYip7CMqrHiA-9" value="«button»&lt;br&gt;&lt;b&gt;Log In&lt;/b&gt;" style="html=1;fillColor=#d5e8d4;strokeColor=#82b366;" vertex="1" parent="JRpuc-3HiYip7CMqrHiA-7">
          <mxGeometry x="10" y="52.5" width="70" height="35" as="geometry" />
        </mxCell>
        <mxCell id="JRpuc-3HiYip7CMqrHiA-10" value="«button»&lt;br&gt;&lt;b&gt;Registracija&lt;/b&gt;" style="html=1;fillColor=#d5e8d4;strokeColor=#82b366;" vertex="1" parent="JRpuc-3HiYip7CMqrHiA-7">
          <mxGeometry x="100" y="52.5" width="80" height="35" as="geometry" />
        </mxCell>
        <mxCell id="JRpuc-3HiYip7CMqrHiA-21" style="edgeStyle=orthogonalEdgeStyle;rounded=0;orthogonalLoop=1;jettySize=auto;html=1;exitX=0;exitY=0.5;exitDx=0;exitDy=0;entryX=0.5;entryY=0;entryDx=0;entryDy=0;" edge="1" parent="1" source="JRpuc-3HiYip7CMqrHiA-11" target="JRpuc-3HiYip7CMqrHiA-19">
          <mxGeometry relative="1" as="geometry" />
        </mxCell>
        <mxCell id="JRpuc-3HiYip7CMqrHiA-25" style="edgeStyle=orthogonalEdgeStyle;rounded=0;orthogonalLoop=1;jettySize=auto;html=1;exitX=1;exitY=0.5;exitDx=0;exitDy=0;entryX=0.5;entryY=0;entryDx=0;entryDy=0;" edge="1" parent="1" source="JRpuc-3HiYip7CMqrHiA-11" target="JRpuc-3HiYip7CMqrHiA-17">
          <mxGeometry relative="1" as="geometry" />
        </mxCell>
        <mxCell id="JRpuc-3HiYip7CMqrHiA-26" style="edgeStyle=orthogonalEdgeStyle;rounded=0;orthogonalLoop=1;jettySize=auto;html=1;exitX=1;exitY=0.5;exitDx=0;exitDy=0;entryX=0.5;entryY=0;entryDx=0;entryDy=0;" edge="1" parent="1" source="JRpuc-3HiYip7CMqrHiA-11" target="JRpuc-3HiYip7CMqrHiA-96">
          <mxGeometry relative="1" as="geometry">
            <mxPoint x="605" y="490" as="targetPoint" />
          </mxGeometry>
        </mxCell>
        <mxCell id="JRpuc-3HiYip7CMqrHiA-27" style="edgeStyle=orthogonalEdgeStyle;rounded=0;orthogonalLoop=1;jettySize=auto;html=1;exitX=1;exitY=0.5;exitDx=0;exitDy=0;entryX=0.5;entryY=0;entryDx=0;entryDy=0;" edge="1" parent="1" source="JRpuc-3HiYip7CMqrHiA-11" target="JRpuc-3HiYip7CMqrHiA-18">
          <mxGeometry relative="1" as="geometry" />
        </mxCell>
        <mxCell id="JRpuc-3HiYip7CMqrHiA-11" value="«form»&lt;br&gt;&lt;b&gt;Log In&lt;/b&gt;" style="html=1;fillColor=#d5e8d4;strokeColor=#82b366;" vertex="1" parent="1">
          <mxGeometry x="190" y="330" width="110" height="50" as="geometry" />
        </mxCell>
        <mxCell id="JRpuc-3HiYip7CMqrHiA-12" style="edgeStyle=orthogonalEdgeStyle;rounded=0;orthogonalLoop=1;jettySize=auto;html=1;exitX=0;exitY=0.5;exitDx=0;exitDy=0;entryX=0.5;entryY=0;entryDx=0;entryDy=0;" edge="1" parent="1" source="JRpuc-3HiYip7CMqrHiA-8" target="JRpuc-3HiYip7CMqrHiA-11">
          <mxGeometry relative="1" as="geometry" />
        </mxCell>
        <mxCell id="JRpuc-3HiYip7CMqrHiA-28" style="edgeStyle=orthogonalEdgeStyle;rounded=0;orthogonalLoop=1;jettySize=auto;html=1;exitX=0;exitY=0.5;exitDx=0;exitDy=0;entryX=0.75;entryY=0;entryDx=0;entryDy=0;" edge="1" parent="1" source="JRpuc-3HiYip7CMqrHiA-13" target="JRpuc-3HiYip7CMqrHiA-18">
          <mxGeometry relative="1" as="geometry" />
        </mxCell>
        <mxCell id="JRpuc-3HiYip7CMqrHiA-29" style="edgeStyle=orthogonalEdgeStyle;rounded=0;orthogonalLoop=1;jettySize=auto;html=1;exitX=0;exitY=0.5;exitDx=0;exitDy=0;entryX=0.75;entryY=0;entryDx=0;entryDy=0;" edge="1" parent="1" source="JRpuc-3HiYip7CMqrHiA-13" target="JRpuc-3HiYip7CMqrHiA-96">
          <mxGeometry relative="1" as="geometry">
            <mxPoint x="652.5" y="490" as="targetPoint" />
          </mxGeometry>
        </mxCell>
        <mxCell id="JRpuc-3HiYip7CMqrHiA-30" style="edgeStyle=orthogonalEdgeStyle;rounded=0;orthogonalLoop=1;jettySize=auto;html=1;exitX=0;exitY=0.5;exitDx=0;exitDy=0;entryX=0.75;entryY=0;entryDx=0;entryDy=0;" edge="1" parent="1" source="JRpuc-3HiYip7CMqrHiA-13" target="JRpuc-3HiYip7CMqrHiA-17">
          <mxGeometry relative="1" as="geometry" />
        </mxCell>
        <mxCell id="JRpuc-3HiYip7CMqrHiA-13" value="«form»&lt;br&gt;&lt;b&gt;Registracija&lt;/b&gt;" style="html=1;fillColor=#d5e8d4;strokeColor=#82b366;" vertex="1" parent="1">
          <mxGeometry x="950" y="375" width="110" height="50" as="geometry" />
        </mxCell>
        <mxCell id="JRpuc-3HiYip7CMqrHiA-14" style="edgeStyle=orthogonalEdgeStyle;rounded=0;orthogonalLoop=1;jettySize=auto;html=1;exitX=1;exitY=0.5;exitDx=0;exitDy=0;entryX=0.5;entryY=0;entryDx=0;entryDy=0;" edge="1" parent="1" source="JRpuc-3HiYip7CMqrHiA-8" target="JRpuc-3HiYip7CMqrHiA-13">
          <mxGeometry relative="1" as="geometry" />
        </mxCell>
        <mxCell id="JRpuc-3HiYip7CMqrHiA-36" style="edgeStyle=orthogonalEdgeStyle;rounded=0;orthogonalLoop=1;jettySize=auto;html=1;exitX=0;exitY=0.5;exitDx=0;exitDy=0;entryX=1;entryY=0.5;entryDx=0;entryDy=0;" edge="1" parent="1" source="JRpuc-3HiYip7CMqrHiA-17" target="JRpuc-3HiYip7CMqrHiA-32">
          <mxGeometry relative="1" as="geometry" />
        </mxCell>
        <mxCell id="JRpuc-3HiYip7CMqrHiA-37" style="edgeStyle=orthogonalEdgeStyle;rounded=0;orthogonalLoop=1;jettySize=auto;html=1;exitX=0;exitY=0.75;exitDx=0;exitDy=0;entryX=1;entryY=0.5;entryDx=0;entryDy=0;" edge="1" parent="1" source="JRpuc-3HiYip7CMqrHiA-17" target="JRpuc-3HiYip7CMqrHiA-33">
          <mxGeometry relative="1" as="geometry">
            <mxPoint x="60" y="720" as="targetPoint" />
            <Array as="points">
              <mxPoint x="120" y="558" />
              <mxPoint x="120" y="615" />
            </Array>
          </mxGeometry>
        </mxCell>
        <mxCell id="JRpuc-3HiYip7CMqrHiA-40" style="edgeStyle=orthogonalEdgeStyle;rounded=0;orthogonalLoop=1;jettySize=auto;html=1;exitX=0.25;exitY=1;exitDx=0;exitDy=0;entryX=1;entryY=0.5;entryDx=0;entryDy=0;" edge="1" parent="1" source="JRpuc-3HiYip7CMqrHiA-17" target="JRpuc-3HiYip7CMqrHiA-38">
          <mxGeometry relative="1" as="geometry" />
        </mxCell>
        <mxCell id="JRpuc-3HiYip7CMqrHiA-43" style="edgeStyle=orthogonalEdgeStyle;rounded=0;orthogonalLoop=1;jettySize=auto;html=1;exitX=0.5;exitY=1;exitDx=0;exitDy=0;entryX=1;entryY=0.5;entryDx=0;entryDy=0;" edge="1" parent="1" source="JRpuc-3HiYip7CMqrHiA-17" target="JRpuc-3HiYip7CMqrHiA-42">
          <mxGeometry relative="1" as="geometry" />
        </mxCell>
        <mxCell id="JRpuc-3HiYip7CMqrHiA-17" value="«window»&lt;br&gt;&lt;b&gt;Početna stranica&lt;br&gt;&lt;br&gt;&lt;/b&gt;" style="html=1;align=center;labelPosition=center;verticalLabelPosition=middle;verticalAlign=top;fillColor=#f8cecc;strokeColor=#b85450;" vertex="1" parent="1">
          <mxGeometry x="230.01" y="490" width="190" height="90" as="geometry" />
        </mxCell>
        <mxCell id="JRpuc-3HiYip7CMqrHiA-46" style="edgeStyle=orthogonalEdgeStyle;rounded=0;orthogonalLoop=1;jettySize=auto;html=1;exitX=1;exitY=0.5;exitDx=0;exitDy=0;entryX=0;entryY=0.5;entryDx=0;entryDy=0;" edge="1" parent="1" source="JRpuc-3HiYip7CMqrHiA-18" target="JRpuc-3HiYip7CMqrHiA-45">
          <mxGeometry relative="1" as="geometry" />
        </mxCell>
        <mxCell id="JRpuc-3HiYip7CMqrHiA-51" style="edgeStyle=orthogonalEdgeStyle;rounded=0;orthogonalLoop=1;jettySize=auto;html=1;exitX=1;exitY=0.5;exitDx=0;exitDy=0;entryX=0;entryY=0.5;entryDx=0;entryDy=0;" edge="1" parent="1" source="JRpuc-3HiYip7CMqrHiA-18" target="JRpuc-3HiYip7CMqrHiA-49">
          <mxGeometry relative="1" as="geometry" />
        </mxCell>
        <mxCell id="JRpuc-3HiYip7CMqrHiA-53" style="edgeStyle=orthogonalEdgeStyle;rounded=0;orthogonalLoop=1;jettySize=auto;html=1;exitX=1;exitY=0.5;exitDx=0;exitDy=0;entryX=0;entryY=0.5;entryDx=0;entryDy=0;" edge="1" parent="1" source="JRpuc-3HiYip7CMqrHiA-18" target="JRpuc-3HiYip7CMqrHiA-52">
          <mxGeometry relative="1" as="geometry" />
        </mxCell>
        <mxCell id="JRpuc-3HiYip7CMqrHiA-18" value="«window»&lt;br&gt;&lt;b&gt;Početna stranica&lt;br&gt;&lt;br&gt;&lt;/b&gt;" style="html=1;align=center;labelPosition=center;verticalLabelPosition=middle;verticalAlign=top;fillColor=#fff2cc;strokeColor=#d6b656;" vertex="1" parent="1">
          <mxGeometry x="780" y="490" width="190" height="90" as="geometry" />
        </mxCell>
        <mxCell id="JRpuc-3HiYip7CMqrHiA-19" value="«window»&lt;br&gt;&lt;b&gt;Sesija zaključana&lt;/b&gt;" style="html=1;verticalAlign=middle;fillColor=#d5e8d4;strokeColor=#82b366;" vertex="1" parent="1">
          <mxGeometry x="70" y="390" width="110" height="70" as="geometry" />
        </mxCell>
        <mxCell id="JRpuc-3HiYip7CMqrHiA-20" value="&lt;b&gt;IF(broj_neuspjesnih_prijava==5)&lt;/b&gt;" style="text;html=1;strokeColor=none;fillColor=none;align=center;verticalAlign=middle;whiteSpace=wrap;rounded=0;" vertex="1" parent="1">
          <mxGeometry x="60" y="330" width="60" height="30" as="geometry" />
        </mxCell>
        <mxCell id="JRpuc-3HiYip7CMqrHiA-82" style="edgeStyle=orthogonalEdgeStyle;rounded=0;orthogonalLoop=1;jettySize=auto;html=1;exitX=0;exitY=0.5;exitDx=0;exitDy=0;entryX=0;entryY=0.5;entryDx=0;entryDy=0;" edge="1" parent="1" source="JRpuc-3HiYip7CMqrHiA-32" target="JRpuc-3HiYip7CMqrHiA-78">
          <mxGeometry relative="1" as="geometry" />
        </mxCell>
        <mxCell id="JRpuc-3HiYip7CMqrHiA-32" value="«window»&lt;br&gt;&lt;b&gt;Ažuriranje proizvoda&lt;/b&gt;" style="html=1;verticalAlign=middle;fillColor=#f8cecc;strokeColor=#b85450;" vertex="1" parent="1">
          <mxGeometry x="-150" y="505" width="180" height="60" as="geometry" />
        </mxCell>
        <mxCell id="JRpuc-3HiYip7CMqrHiA-83" style="edgeStyle=orthogonalEdgeStyle;rounded=0;orthogonalLoop=1;jettySize=auto;html=1;exitX=0;exitY=0.5;exitDx=0;exitDy=0;entryX=0;entryY=0.5;entryDx=0;entryDy=0;" edge="1" parent="1" source="JRpuc-3HiYip7CMqrHiA-33" target="JRpuc-3HiYip7CMqrHiA-78">
          <mxGeometry relative="1" as="geometry" />
        </mxCell>
        <mxCell id="JRpuc-3HiYip7CMqrHiA-33" value="«window»&lt;br&gt;&lt;b&gt;Statistika&lt;/b&gt;" style="html=1;verticalAlign=middle;fillColor=#f8cecc;strokeColor=#b85450;" vertex="1" parent="1">
          <mxGeometry x="-150" y="585" width="180" height="60" as="geometry" />
        </mxCell>
        <mxCell id="JRpuc-3HiYip7CMqrHiA-34" value="&lt;b style=&quot;color: rgb(0 , 0 , 0) ; font-family: &amp;quot;helvetica&amp;quot; ; font-size: 12px ; font-style: normal ; letter-spacing: normal ; text-indent: 0px ; text-transform: none ; word-spacing: 0px ; background-color: rgb(248 , 249 , 250)&quot;&gt;Klik Kreiranje/Pregled/Ažuriranje proizvoda&lt;/b&gt;" style="text;whiteSpace=wrap;html=1;align=center;" vertex="1" parent="1">
          <mxGeometry x="65" y="475" width="120" height="30" as="geometry" />
        </mxCell>
        <mxCell id="JRpuc-3HiYip7CMqrHiA-35" value="&lt;b style=&quot;color: rgb(0 , 0 , 0) ; font-family: &amp;quot;helvetica&amp;quot; ; font-size: 12px ; font-style: normal ; letter-spacing: normal ; text-indent: 0px ; text-transform: none ; word-spacing: 0px ; background-color: rgb(248 , 249 , 250)&quot;&gt;Klik na statistiku&lt;/b&gt;" style="text;whiteSpace=wrap;html=1;align=center;" vertex="1" parent="1">
          <mxGeometry x="30" y="620" width="180" height="30" as="geometry" />
        </mxCell>
        <mxCell id="JRpuc-3HiYip7CMqrHiA-84" style="edgeStyle=orthogonalEdgeStyle;rounded=0;orthogonalLoop=1;jettySize=auto;html=1;exitX=0;exitY=0.5;exitDx=0;exitDy=0;entryX=0;entryY=0.5;entryDx=0;entryDy=0;" edge="1" parent="1" source="JRpuc-3HiYip7CMqrHiA-38" target="JRpuc-3HiYip7CMqrHiA-78">
          <mxGeometry relative="1" as="geometry" />
        </mxCell>
        <mxCell id="JRpuc-3HiYip7CMqrHiA-38" value="«window»&lt;br&gt;&lt;b&gt;Konfiguracija aplikacije&lt;/b&gt;" style="html=1;verticalAlign=middle;fillColor=#f8cecc;strokeColor=#b85450;" vertex="1" parent="1">
          <mxGeometry x="-150" y="670" width="180" height="60" as="geometry" />
        </mxCell>
        <mxCell id="JRpuc-3HiYip7CMqrHiA-41" value="&lt;b style=&quot;color: rgb(0 , 0 , 0) ; font-family: &amp;quot;helvetica&amp;quot; ; font-size: 12px ; font-style: normal ; letter-spacing: normal ; text-indent: 0px ; text-transform: none ; word-spacing: 0px ; background-color: rgb(248 , 249 , 250)&quot;&gt;Klik Konfiguracija aplikacije&lt;/b&gt;" style="text;whiteSpace=wrap;html=1;align=center;" vertex="1" parent="1">
          <mxGeometry x="65" y="675" width="180" height="30" as="geometry" />
        </mxCell>
        <mxCell id="JRpuc-3HiYip7CMqrHiA-85" style="edgeStyle=orthogonalEdgeStyle;rounded=0;orthogonalLoop=1;jettySize=auto;html=1;exitX=0;exitY=0.5;exitDx=0;exitDy=0;entryX=0;entryY=0.5;entryDx=0;entryDy=0;" edge="1" parent="1" source="JRpuc-3HiYip7CMqrHiA-42" target="JRpuc-3HiYip7CMqrHiA-78">
          <mxGeometry relative="1" as="geometry" />
        </mxCell>
        <mxCell id="JRpuc-3HiYip7CMqrHiA-42" value="«window»&lt;br&gt;&lt;b&gt;Dnevnik rada&lt;/b&gt;" style="html=1;verticalAlign=middle;fillColor=#f8cecc;strokeColor=#b85450;" vertex="1" parent="1">
          <mxGeometry x="-150" y="750" width="180" height="60" as="geometry" />
        </mxCell>
        <mxCell id="JRpuc-3HiYip7CMqrHiA-44" value="&lt;b style=&quot;color: rgb(0 , 0 , 0) ; font-family: &amp;quot;helvetica&amp;quot; ; font-size: 12px ; font-style: normal ; letter-spacing: normal ; text-indent: 0px ; text-transform: none ; word-spacing: 0px ; background-color: rgb(248 , 249 , 250)&quot;&gt;Klik Dnevnik rada&lt;/b&gt;" style="text;whiteSpace=wrap;html=1;align=center;" vertex="1" parent="1">
          <mxGeometry x="80" y="750" width="180" height="30" as="geometry" />
        </mxCell>
        <mxCell id="JRpuc-3HiYip7CMqrHiA-86" style="edgeStyle=orthogonalEdgeStyle;rounded=0;orthogonalLoop=1;jettySize=auto;html=1;exitX=1;exitY=0.5;exitDx=0;exitDy=0;entryX=1;entryY=0.5;entryDx=0;entryDy=0;" edge="1" parent="1" source="JRpuc-3HiYip7CMqrHiA-45" target="JRpuc-3HiYip7CMqrHiA-78">
          <mxGeometry relative="1" as="geometry" />
        </mxCell>
        <mxCell id="JRpuc-3HiYip7CMqrHiA-45" value="«window»&lt;br&gt;&lt;b style=&quot;border-color: var(--border-color); font-family: helvetica; background-color: rgb(248, 249, 250);&quot;&gt;Kreiranje/Pregled/Ažuriranje &lt;br&gt;kampanje&lt;/b&gt;" style="html=1;verticalAlign=middle;fillColor=#fff2cc;strokeColor=#d6b656;" vertex="1" parent="1">
          <mxGeometry x="1230" y="505" width="180" height="60" as="geometry" />
        </mxCell>
        <mxCell id="JRpuc-3HiYip7CMqrHiA-47" value="&lt;b style=&quot;color: rgb(0 , 0 , 0) ; font-family: &amp;quot;helvetica&amp;quot; ; font-size: 12px ; font-style: normal ; letter-spacing: normal ; text-indent: 0px ; text-transform: none ; word-spacing: 0px ; background-color: rgb(248 , 249 , 250)&quot;&gt;Klik Kreiranje/Pregled/Ažuriranje kampanje&lt;/b&gt;" style="text;whiteSpace=wrap;html=1;align=center;" vertex="1" parent="1">
          <mxGeometry x="1010" y="475" width="120" height="30" as="geometry" />
        </mxCell>
        <mxCell id="JRpuc-3HiYip7CMqrHiA-48" value="&lt;b style=&quot;color: rgb(0 , 0 , 0) ; font-family: &amp;quot;helvetica&amp;quot; ; font-size: 12px ; font-style: normal ; letter-spacing: normal ; text-indent: 0px ; text-transform: none ; word-spacing: 0px ; background-color: rgb(248 , 249 , 250)&quot;&gt;Klik Popis proizvoda u aktivnim kampanjama&lt;/b&gt;" style="text;whiteSpace=wrap;html=1;align=center;" vertex="1" parent="1">
          <mxGeometry x="1100" y="565" width="140" height="30" as="geometry" />
        </mxCell>
        <mxCell id="JRpuc-3HiYip7CMqrHiA-87" style="edgeStyle=orthogonalEdgeStyle;rounded=0;orthogonalLoop=1;jettySize=auto;html=1;exitX=1;exitY=0.5;exitDx=0;exitDy=0;entryX=1;entryY=0.5;entryDx=0;entryDy=0;" edge="1" parent="1" source="JRpuc-3HiYip7CMqrHiA-49" target="JRpuc-3HiYip7CMqrHiA-78">
          <mxGeometry relative="1" as="geometry" />
        </mxCell>
        <mxCell id="JRpuc-3HiYip7CMqrHiA-49" value="«window»&lt;br&gt;&lt;b style=&quot;border-color: var(--border-color); font-family: helvetica; background-color: rgb(248, 249, 250);&quot;&gt;Popis proizvoda u aktivnim &lt;br&gt;kampanjama&lt;/b&gt;" style="html=1;verticalAlign=middle;fillColor=#fff2cc;strokeColor=#d6b656;" vertex="1" parent="1">
          <mxGeometry x="1230" y="605" width="180" height="60" as="geometry" />
        </mxCell>
        <mxCell id="JRpuc-3HiYip7CMqrHiA-88" style="edgeStyle=orthogonalEdgeStyle;rounded=0;orthogonalLoop=1;jettySize=auto;html=1;exitX=1;exitY=0.5;exitDx=0;exitDy=0;entryX=1;entryY=0.5;entryDx=0;entryDy=0;" edge="1" parent="1" source="JRpuc-3HiYip7CMqrHiA-52" target="JRpuc-3HiYip7CMqrHiA-78">
          <mxGeometry relative="1" as="geometry" />
        </mxCell>
        <mxCell id="JRpuc-3HiYip7CMqrHiA-52" value="«window»&lt;br&gt;&lt;font face=&quot;helvetica&quot;&gt;&lt;span style=&quot;background-color: rgb(248, 249, 250);&quot;&gt;&lt;b&gt;Statistika&lt;/b&gt;&lt;/span&gt;&lt;/font&gt;" style="html=1;verticalAlign=middle;fillColor=#fff2cc;strokeColor=#d6b656;" vertex="1" parent="1">
          <mxGeometry x="1230" y="705" width="180" height="60" as="geometry" />
        </mxCell>
        <mxCell id="JRpuc-3HiYip7CMqrHiA-54" value="&lt;b style=&quot;color: rgb(0 , 0 , 0) ; font-family: &amp;quot;helvetica&amp;quot; ; font-size: 12px ; font-style: normal ; letter-spacing: normal ; text-indent: 0px ; text-transform: none ; word-spacing: 0px ; background-color: rgb(248 , 249 , 250)&quot;&gt;Klik Statistika&lt;/b&gt;" style="text;whiteSpace=wrap;html=1;align=center;" vertex="1" parent="1">
          <mxGeometry x="1090" y="700" width="140" height="30" as="geometry" />
        </mxCell>
        <mxCell id="JRpuc-3HiYip7CMqrHiA-58" style="edgeStyle=orthogonalEdgeStyle;rounded=0;orthogonalLoop=1;jettySize=auto;html=1;exitX=0.5;exitY=1;exitDx=0;exitDy=0;entryX=0.5;entryY=0;entryDx=0;entryDy=0;" edge="1" parent="1" source="JRpuc-3HiYip7CMqrHiA-55" target="JRpuc-3HiYip7CMqrHiA-57">
          <mxGeometry relative="1" as="geometry" />
        </mxCell>
        <mxCell id="JRpuc-3HiYip7CMqrHiA-62" style="edgeStyle=orthogonalEdgeStyle;rounded=0;orthogonalLoop=1;jettySize=auto;html=1;exitX=0.5;exitY=1;exitDx=0;exitDy=0;entryX=0.5;entryY=0;entryDx=0;entryDy=0;" edge="1" parent="1" source="JRpuc-3HiYip7CMqrHiA-55" target="JRpuc-3HiYip7CMqrHiA-61">
          <mxGeometry relative="1" as="geometry" />
        </mxCell>
        <mxCell id="JRpuc-3HiYip7CMqrHiA-64" style="edgeStyle=orthogonalEdgeStyle;rounded=0;orthogonalLoop=1;jettySize=auto;html=1;exitX=0.5;exitY=1;exitDx=0;exitDy=0;entryX=0.5;entryY=0;entryDx=0;entryDy=0;" edge="1" parent="1" source="JRpuc-3HiYip7CMqrHiA-55" target="JRpuc-3HiYip7CMqrHiA-63">
          <mxGeometry relative="1" as="geometry" />
        </mxCell>
        <mxCell id="JRpuc-3HiYip7CMqrHiA-55" value="«window»&lt;br&gt;&lt;font face=&quot;helvetica&quot;&gt;&lt;span style=&quot;background-color: rgb(248, 249, 250);&quot;&gt;&lt;b&gt;Profil&lt;/b&gt;&lt;/span&gt;&lt;/font&gt;" style="html=1;verticalAlign=middle;fillColor=#ffe6cc;strokeColor=#d79b00;" vertex="1" parent="1">
          <mxGeometry x="515" y="645" width="180" height="60" as="geometry" />
        </mxCell>
        <mxCell id="JRpuc-3HiYip7CMqrHiA-56" style="edgeStyle=orthogonalEdgeStyle;rounded=0;orthogonalLoop=1;jettySize=auto;html=1;exitX=0.443;exitY=0.997;exitDx=0;exitDy=0;entryX=0.5;entryY=0;entryDx=0;entryDy=0;exitPerimeter=0;" edge="1" parent="1" source="JRpuc-3HiYip7CMqrHiA-96" target="JRpuc-3HiYip7CMqrHiA-55">
          <mxGeometry relative="1" as="geometry">
            <mxPoint x="605" y="580" as="sourcePoint" />
            <Array as="points">
              <mxPoint x="605" y="580" />
            </Array>
          </mxGeometry>
        </mxCell>
        <mxCell id="JRpuc-3HiYip7CMqrHiA-80" style="edgeStyle=orthogonalEdgeStyle;rounded=0;orthogonalLoop=1;jettySize=auto;html=1;exitX=0.5;exitY=1;exitDx=0;exitDy=0;entryX=0.5;entryY=0;entryDx=0;entryDy=0;" edge="1" parent="1" source="JRpuc-3HiYip7CMqrHiA-57" target="JRpuc-3HiYip7CMqrHiA-78">
          <mxGeometry relative="1" as="geometry" />
        </mxCell>
        <mxCell id="JRpuc-3HiYip7CMqrHiA-57" value="«window»&lt;br&gt;&lt;font face=&quot;helvetica&quot;&gt;&lt;span style=&quot;background-color: rgb(248, 249, 250);&quot;&gt;&lt;b&gt;Kupnja proizvoda&lt;/b&gt;&lt;/span&gt;&lt;/font&gt;" style="html=1;verticalAlign=middle;fillColor=#ffe6cc;strokeColor=#d79b00;" vertex="1" parent="1">
          <mxGeometry x="515" y="840" width="180" height="60" as="geometry" />
        </mxCell>
        <mxCell id="JRpuc-3HiYip7CMqrHiA-59" value="&lt;b&gt;IF(profil_status=TRUE)&lt;/b&gt;" style="text;html=1;strokeColor=none;fillColor=none;align=center;verticalAlign=middle;whiteSpace=wrap;rounded=0;" vertex="1" parent="1">
          <mxGeometry x="652.5" y="720" width="60" height="30" as="geometry" />
        </mxCell>
        <mxCell id="JRpuc-3HiYip7CMqrHiA-81" style="edgeStyle=orthogonalEdgeStyle;rounded=0;orthogonalLoop=1;jettySize=auto;html=1;exitX=0.5;exitY=1;exitDx=0;exitDy=0;entryX=0.5;entryY=0;entryDx=0;entryDy=0;" edge="1" parent="1" source="JRpuc-3HiYip7CMqrHiA-61" target="JRpuc-3HiYip7CMqrHiA-78">
          <mxGeometry relative="1" as="geometry" />
        </mxCell>
        <mxCell id="JRpuc-3HiYip7CMqrHiA-61" value="«window»&lt;br&gt;&lt;font face=&quot;helvetica&quot;&gt;&lt;span style=&quot;background-color: rgb(248, 249, 250);&quot;&gt;&lt;b&gt;Popis kampanji&lt;/b&gt;&lt;/span&gt;&lt;/font&gt;" style="html=1;verticalAlign=middle;fillColor=#ffe6cc;strokeColor=#d79b00;" vertex="1" parent="1">
          <mxGeometry x="727.5" y="840" width="180" height="60" as="geometry" />
        </mxCell>
        <mxCell id="JRpuc-3HiYip7CMqrHiA-79" style="edgeStyle=orthogonalEdgeStyle;rounded=0;orthogonalLoop=1;jettySize=auto;html=1;exitX=0.5;exitY=1;exitDx=0;exitDy=0;entryX=0.5;entryY=0;entryDx=0;entryDy=0;" edge="1" parent="1" source="JRpuc-3HiYip7CMqrHiA-63" target="JRpuc-3HiYip7CMqrHiA-78">
          <mxGeometry relative="1" as="geometry" />
        </mxCell>
        <mxCell id="JRpuc-3HiYip7CMqrHiA-63" value="«window»&lt;br&gt;&lt;font face=&quot;helvetica&quot;&gt;&lt;span style=&quot;background-color: rgb(248, 249, 250);&quot;&gt;&lt;b&gt;Količina bodova&lt;/b&gt;&lt;/span&gt;&lt;/font&gt;" style="html=1;verticalAlign=middle;fillColor=#ffe6cc;strokeColor=#d79b00;" vertex="1" parent="1">
          <mxGeometry x="300" y="840" width="180" height="60" as="geometry" />
        </mxCell>
        <mxCell id="JRpuc-3HiYip7CMqrHiA-65" value="" style="group" vertex="1" connectable="0" parent="1">
          <mxGeometry x="380" y="270" width="190" height="60" as="geometry" />
        </mxCell>
        <mxCell id="JRpuc-3HiYip7CMqrHiA-66" value="«window»&lt;br&gt;&lt;b&gt;Popis kampanji&lt;br&gt;&lt;/b&gt;" style="html=1;align=center;labelPosition=center;verticalLabelPosition=middle;verticalAlign=top;" vertex="1" parent="JRpuc-3HiYip7CMqrHiA-65">
          <mxGeometry width="190" height="60" as="geometry" />
        </mxCell>
        <mxCell id="JRpuc-3HiYip7CMqrHiA-67" style="edgeStyle=orthogonalEdgeStyle;rounded=0;orthogonalLoop=1;jettySize=auto;html=1;exitX=0.5;exitY=1;exitDx=0;exitDy=0;entryX=0.5;entryY=0;entryDx=0;entryDy=0;" edge="1" parent="1" source="JRpuc-3HiYip7CMqrHiA-8" target="JRpuc-3HiYip7CMqrHiA-66">
          <mxGeometry relative="1" as="geometry">
            <Array as="points">
              <mxPoint x="605" y="250" />
              <mxPoint x="475" y="250" />
            </Array>
          </mxGeometry>
        </mxCell>
        <mxCell id="JRpuc-3HiYip7CMqrHiA-68" value="" style="group" vertex="1" connectable="0" parent="1">
          <mxGeometry x="630" y="270" width="190" height="60" as="geometry" />
        </mxCell>
        <mxCell id="JRpuc-3HiYip7CMqrHiA-69" value="«window»&lt;br&gt;&lt;b&gt;Popis korisnika&lt;br&gt;&lt;/b&gt;" style="html=1;align=center;labelPosition=center;verticalLabelPosition=middle;verticalAlign=top;" vertex="1" parent="JRpuc-3HiYip7CMqrHiA-68">
          <mxGeometry width="190" height="60" as="geometry" />
        </mxCell>
        <mxCell id="JRpuc-3HiYip7CMqrHiA-70" style="edgeStyle=orthogonalEdgeStyle;rounded=0;orthogonalLoop=1;jettySize=auto;html=1;exitX=0.5;exitY=1;exitDx=0;exitDy=0;entryX=0.5;entryY=0;entryDx=0;entryDy=0;" edge="1" parent="1" source="JRpuc-3HiYip7CMqrHiA-8" target="JRpuc-3HiYip7CMqrHiA-69">
          <mxGeometry relative="1" as="geometry">
            <Array as="points">
              <mxPoint x="605" y="250" />
              <mxPoint x="725" y="250" />
            </Array>
          </mxGeometry>
        </mxCell>
        <mxCell id="JRpuc-3HiYip7CMqrHiA-72" value="&lt;b&gt;IF(tip_id==4)&lt;br&gt;Neregistrirani korisnik&lt;br&gt;&lt;/b&gt;" style="text;html=1;strokeColor=none;fillColor=none;align=center;verticalAlign=middle;whiteSpace=wrap;rounded=0;" vertex="1" parent="1">
          <mxGeometry x="602.5" y="180" width="160" height="30" as="geometry" />
        </mxCell>
        <mxCell id="JRpuc-3HiYip7CMqrHiA-75" value="&lt;b&gt;ELSE IF(tip_id==2)&lt;br&gt;Moderator&lt;br&gt;&lt;/b&gt;" style="text;html=1;strokeColor=none;fillColor=none;align=center;verticalAlign=middle;whiteSpace=wrap;rounded=0;" vertex="1" parent="1">
          <mxGeometry x="820" y="440" width="160" height="30" as="geometry" />
        </mxCell>
        <mxCell id="JRpuc-3HiYip7CMqrHiA-76" value="&lt;b&gt;ELSE IF(tip_id==3)&lt;br&gt;Registrirani korisnik&lt;br&gt;&lt;/b&gt;" style="text;html=1;strokeColor=none;fillColor=none;align=center;verticalAlign=middle;whiteSpace=wrap;rounded=0;" vertex="1" parent="1">
          <mxGeometry x="540" y="445" width="160" height="30" as="geometry" />
        </mxCell>
        <mxCell id="JRpuc-3HiYip7CMqrHiA-77" value="&lt;b&gt;ELSE IF(tip_id==1)&lt;br&gt;Administrator&lt;br&gt;&lt;/b&gt;" style="text;html=1;strokeColor=none;fillColor=none;align=center;verticalAlign=middle;whiteSpace=wrap;rounded=0;" vertex="1" parent="1">
          <mxGeometry x="265" y="440" width="160" height="30" as="geometry" />
        </mxCell>
        <mxCell id="JRpuc-3HiYip7CMqrHiA-89" style="edgeStyle=orthogonalEdgeStyle;rounded=0;orthogonalLoop=1;jettySize=auto;html=1;exitX=0.5;exitY=1;exitDx=0;exitDy=0;entryX=1;entryY=0.25;entryDx=0;entryDy=0;" edge="1" parent="1" source="JRpuc-3HiYip7CMqrHiA-78" target="JRpuc-3HiYip7CMqrHiA-8">
          <mxGeometry relative="1" as="geometry">
            <Array as="points">
              <mxPoint x="605" y="1160" />
              <mxPoint x="1480" y="1160" />
              <mxPoint x="1480" y="75" />
            </Array>
          </mxGeometry>
        </mxCell>
        <mxCell id="JRpuc-3HiYip7CMqrHiA-78" value="«window»&lt;br&gt;&lt;b&gt;Odjava&lt;br&gt;&lt;/b&gt;" style="html=1;align=center;labelPosition=center;verticalLabelPosition=middle;verticalAlign=top;fillColor=#dae8fc;strokeColor=#6c8ebf;" vertex="1" parent="1">
          <mxGeometry x="510" y="1050" width="190" height="90" as="geometry" />
        </mxCell>
        <mxCell id="JRpuc-3HiYip7CMqrHiA-90" value="&lt;b style=&quot;color: rgb(0 , 0 , 0) ; font-family: &amp;quot;helvetica&amp;quot; ; font-size: 12px ; font-style: normal ; letter-spacing: normal ; text-indent: 0px ; text-transform: none ; word-spacing: 0px ; background-color: rgb(248 , 249 , 250)&quot;&gt;Klik Odjava&lt;/b&gt;" style="text;whiteSpace=wrap;html=1;align=center;" vertex="1" parent="1">
          <mxGeometry x="587.5" y="990" width="140" height="30" as="geometry" />
        </mxCell>
        <mxCell id="JRpuc-3HiYip7CMqrHiA-91" value="&lt;b style=&quot;color: rgb(0 , 0 , 0) ; font-family: &amp;quot;helvetica&amp;quot; ; font-size: 12px ; font-style: normal ; letter-spacing: normal ; text-indent: 0px ; text-transform: none ; word-spacing: 0px ; background-color: rgb(248 , 249 , 250)&quot;&gt;Klik Odjava&lt;/b&gt;" style="text;whiteSpace=wrap;html=1;align=center;" vertex="1" parent="1">
          <mxGeometry x="1310" y="810" width="140" height="30" as="geometry" />
        </mxCell>
        <mxCell id="JRpuc-3HiYip7CMqrHiA-92" value="&lt;b style=&quot;color: rgb(0 , 0 , 0) ; font-family: &amp;quot;helvetica&amp;quot; ; font-size: 12px ; font-style: normal ; letter-spacing: normal ; text-indent: 0px ; text-transform: none ; word-spacing: 0px ; background-color: rgb(248 , 249 , 250)&quot;&gt;Klik Odjava&lt;/b&gt;" style="text;whiteSpace=wrap;html=1;align=center;" vertex="1" parent="1">
          <mxGeometry x="375" y="910" width="140" height="30" as="geometry" />
        </mxCell>
        <mxCell id="JRpuc-3HiYip7CMqrHiA-93" value="&lt;b style=&quot;color: rgb(0 , 0 , 0) ; font-family: &amp;quot;helvetica&amp;quot; ; font-size: 12px ; font-style: normal ; letter-spacing: normal ; text-indent: 0px ; text-transform: none ; word-spacing: 0px ; background-color: rgb(248 , 249 , 250)&quot;&gt;Klik Odjava&lt;/b&gt;" style="text;whiteSpace=wrap;html=1;align=center;" vertex="1" parent="1">
          <mxGeometry x="587.5" y="920" width="140" height="30" as="geometry" />
        </mxCell>
        <mxCell id="JRpuc-3HiYip7CMqrHiA-94" value="&lt;b style=&quot;color: rgb(0 , 0 , 0) ; font-family: &amp;quot;helvetica&amp;quot; ; font-size: 12px ; font-style: normal ; letter-spacing: normal ; text-indent: 0px ; text-transform: none ; word-spacing: 0px ; background-color: rgb(248 , 249 , 250)&quot;&gt;Klik Odjava&lt;/b&gt;" style="text;whiteSpace=wrap;html=1;align=center;" vertex="1" parent="1">
          <mxGeometry x="805" y="910" width="140" height="30" as="geometry" />
        </mxCell>
        <mxCell id="JRpuc-3HiYip7CMqrHiA-95" value="&lt;b style=&quot;color: rgb(0 , 0 , 0) ; font-family: &amp;quot;helvetica&amp;quot; ; font-size: 12px ; font-style: normal ; letter-spacing: normal ; text-indent: 0px ; text-transform: none ; word-spacing: 0px ; background-color: rgb(248 , 249 , 250)&quot;&gt;Klik Odjava&lt;/b&gt;" style="text;whiteSpace=wrap;html=1;align=center;" vertex="1" parent="1">
          <mxGeometry x="-180" y="850" width="140" height="30" as="geometry" />
        </mxCell>
        <mxCell id="JRpuc-3HiYip7CMqrHiA-96" value="«window»&lt;br&gt;&lt;b&gt;Početna stranica&lt;br&gt;&lt;br&gt;&lt;/b&gt;" style="html=1;align=center;labelPosition=center;verticalLabelPosition=middle;verticalAlign=top;fillColor=#ffe6cc;strokeColor=#d79b00;" vertex="1" parent="1">
          <mxGeometry x="515" y="490" width="190" height="90" as="geometry" />
        </mxCell>
      </root>
    </mxGraphModel>
  </diagram>
</mxfile>
